<mxfile host="app.diagrams.net" modified="2021-03-02T03:03:40.802Z" agent="5.0 (Macintosh; Intel Mac OS X 11_1_0) AppleWebKit/537.36 (KHTML, like Gecko) Chrome/88.0.4324.150 Safari/537.36" etag="L6BfEi4OEvt9rKojplCB" version="14.2.9" type="github">
  <diagram id="qoWiwMtUUDoG-ershA9c" name="Page-1">
    <mxGraphModel dx="1299" dy="554" grid="1" gridSize="10" guides="1" tooltips="1" connect="1" arrows="1" fold="1" page="1" pageScale="1" pageWidth="3300" pageHeight="4681" math="0" shadow="0">
      <root>
        <mxCell id="0" />
        <mxCell id="1" parent="0" />
        <mxCell id="PZr9lelDYHl3dYxXVVvF-3" value="" style="edgeStyle=orthogonalEdgeStyle;rounded=0;orthogonalLoop=1;jettySize=auto;html=1;" parent="1" source="PZr9lelDYHl3dYxXVVvF-1" target="PZr9lelDYHl3dYxXVVvF-2" edge="1">
          <mxGeometry relative="1" as="geometry" />
        </mxCell>
        <mxCell id="PZr9lelDYHl3dYxXVVvF-1" value="1.审批流&lt;br&gt;2.批量操作" style="rounded=0;whiteSpace=wrap;html=1;" parent="1" vertex="1">
          <mxGeometry x="220" y="70" width="120" height="60" as="geometry" />
        </mxCell>
        <mxCell id="PZr9lelDYHl3dYxXVVvF-7" style="edgeStyle=orthogonalEdgeStyle;rounded=0;orthogonalLoop=1;jettySize=auto;html=1;" parent="1" source="PZr9lelDYHl3dYxXVVvF-2" edge="1">
          <mxGeometry relative="1" as="geometry">
            <mxPoint x="280" y="340" as="targetPoint" />
          </mxGeometry>
        </mxCell>
        <mxCell id="PZr9lelDYHl3dYxXVVvF-2" value="验证、保存文件&lt;br&gt;创建批量任务" style="rounded=0;whiteSpace=wrap;html=1;" parent="1" vertex="1">
          <mxGeometry x="220" y="210" width="120" height="60" as="geometry" />
        </mxCell>
        <mxCell id="PZr9lelDYHl3dYxXVVvF-4" value="上传" style="text;html=1;align=center;verticalAlign=middle;resizable=0;points=[];autosize=1;" parent="1" vertex="1">
          <mxGeometry x="270" y="160" width="40" height="20" as="geometry" />
        </mxCell>
        <mxCell id="PZr9lelDYHl3dYxXVVvF-5" value="" style="verticalLabelPosition=bottom;verticalAlign=top;html=1;shape=mxgraph.basic.layered_rect;dx=10;outlineConnect=0;" parent="1" vertex="1">
          <mxGeometry x="230" y="340" width="100" height="60" as="geometry" />
        </mxCell>
        <mxCell id="PZr9lelDYHl3dYxXVVvF-6" value="OSS" style="text;html=1;strokeColor=none;fillColor=none;align=center;verticalAlign=middle;whiteSpace=wrap;rounded=0;" parent="1" vertex="1">
          <mxGeometry x="260" y="360" width="40" height="20" as="geometry" />
        </mxCell>
        <mxCell id="PZr9lelDYHl3dYxXVVvF-8" value="batch_operate_upload" style="shape=process;whiteSpace=wrap;html=1;backgroundOutline=1;" parent="1" vertex="1">
          <mxGeometry x="480" y="340" width="160" height="60" as="geometry" />
        </mxCell>
        <mxCell id="PZr9lelDYHl3dYxXVVvF-9" value="&lt;br&gt;线程池&lt;br&gt;" style="shape=internalStorage;whiteSpace=wrap;html=1;backgroundOutline=1;" parent="1" vertex="1">
          <mxGeometry x="590" y="100" width="140" height="160" as="geometry" />
        </mxCell>
        <mxCell id="PZr9lelDYHl3dYxXVVvF-10" value="" style="endArrow=classic;html=1;exitX=0;exitY=0;exitDx=100;exitDy=22.5;exitPerimeter=0;entryX=0;entryY=0.5;entryDx=0;entryDy=0;dashed=1;" parent="1" source="PZr9lelDYHl3dYxXVVvF-5" target="PZr9lelDYHl3dYxXVVvF-13" edge="1">
          <mxGeometry width="50" height="50" relative="1" as="geometry">
            <mxPoint x="390" y="380" as="sourcePoint" />
            <mxPoint x="440" y="330" as="targetPoint" />
          </mxGeometry>
        </mxCell>
        <mxCell id="PZr9lelDYHl3dYxXVVvF-11" value="&lt;span&gt;xxljob监听&lt;/span&gt;" style="rounded=0;whiteSpace=wrap;html=1;" parent="1" vertex="1">
          <mxGeometry x="615" y="130" width="100" height="40" as="geometry" />
        </mxCell>
        <mxCell id="PZr9lelDYHl3dYxXVVvF-13" value="文件解析" style="rounded=0;whiteSpace=wrap;html=1;" parent="1" vertex="1">
          <mxGeometry x="620" y="210" width="90" height="40" as="geometry" />
        </mxCell>
        <mxCell id="PZr9lelDYHl3dYxXVVvF-14" value="" style="endArrow=classic;html=1;exitX=0.5;exitY=0;exitDx=0;exitDy=0;entryX=0;entryY=0.5;entryDx=0;entryDy=0;" parent="1" source="PZr9lelDYHl3dYxXVVvF-8" target="PZr9lelDYHl3dYxXVVvF-11" edge="1">
          <mxGeometry width="50" height="50" relative="1" as="geometry">
            <mxPoint x="400" y="600" as="sourcePoint" />
            <mxPoint x="450" y="550" as="targetPoint" />
          </mxGeometry>
        </mxCell>
        <mxCell id="PZr9lelDYHl3dYxXVVvF-15" value="保存" style="text;html=1;align=center;verticalAlign=middle;resizable=0;points=[];autosize=1;" parent="1" vertex="1">
          <mxGeometry x="270" y="290" width="40" height="20" as="geometry" />
        </mxCell>
        <mxCell id="PZr9lelDYHl3dYxXVVvF-16" value="" style="endArrow=classic;html=1;exitX=1;exitY=0.75;exitDx=0;exitDy=0;entryX=0;entryY=0.5;entryDx=0;entryDy=0;" parent="1" source="PZr9lelDYHl3dYxXVVvF-2" target="PZr9lelDYHl3dYxXVVvF-8" edge="1">
          <mxGeometry width="50" height="50" relative="1" as="geometry">
            <mxPoint x="360" y="300" as="sourcePoint" />
            <mxPoint x="410" y="250" as="targetPoint" />
          </mxGeometry>
        </mxCell>
        <mxCell id="PZr9lelDYHl3dYxXVVvF-17" value="写入总表" style="text;html=1;align=center;verticalAlign=middle;resizable=0;points=[];autosize=1;" parent="1" vertex="1">
          <mxGeometry x="366" y="270" width="60" height="20" as="geometry" />
        </mxCell>
        <mxCell id="PZr9lelDYHl3dYxXVVvF-18" value="读取" style="text;html=1;align=center;verticalAlign=middle;resizable=0;points=[];autosize=1;" parent="1" vertex="1">
          <mxGeometry x="470" y="270" width="40" height="20" as="geometry" />
        </mxCell>
        <mxCell id="PZr9lelDYHl3dYxXVVvF-19" value="" style="endArrow=classic;html=1;exitX=0.457;exitY=1.013;exitDx=0;exitDy=0;exitPerimeter=0;entryX=0.713;entryY=-0.033;entryDx=0;entryDy=0;entryPerimeter=0;" parent="1" source="PZr9lelDYHl3dYxXVVvF-9" target="PZr9lelDYHl3dYxXVVvF-8" edge="1">
          <mxGeometry width="50" height="50" relative="1" as="geometry">
            <mxPoint x="670" y="350" as="sourcePoint" />
            <mxPoint x="720" y="300" as="targetPoint" />
          </mxGeometry>
        </mxCell>
        <mxCell id="PZr9lelDYHl3dYxXVVvF-20" value="更新状态" style="text;html=1;align=center;verticalAlign=middle;resizable=0;points=[];autosize=1;" parent="1" vertex="1">
          <mxGeometry x="610" y="300" width="60" height="20" as="geometry" />
        </mxCell>
        <mxCell id="PZr9lelDYHl3dYxXVVvF-21" value="明细待处理消息队列" style="shape=cube;whiteSpace=wrap;html=1;boundedLbl=1;backgroundOutline=1;darkOpacity=0.05;darkOpacity2=0.1;" parent="1" vertex="1">
          <mxGeometry x="1115" y="110" width="80" height="140" as="geometry" />
        </mxCell>
        <mxCell id="PZr9lelDYHl3dYxXVVvF-26" value="&lt;br&gt;线程池&lt;br&gt;" style="shape=internalStorage;whiteSpace=wrap;html=1;backgroundOutline=1;" parent="1" vertex="1">
          <mxGeometry x="1325" y="100" width="140" height="160" as="geometry" />
        </mxCell>
        <mxCell id="PZr9lelDYHl3dYxXVVvF-27" value="&lt;span&gt;消息消费组件&lt;/span&gt;" style="rounded=0;whiteSpace=wrap;html=1;" parent="1" vertex="1">
          <mxGeometry x="1350" y="130" width="100" height="40" as="geometry" />
        </mxCell>
        <mxCell id="PZr9lelDYHl3dYxXVVvF-28" value="明细处理" style="rounded=0;whiteSpace=wrap;html=1;" parent="1" vertex="1">
          <mxGeometry x="1355" y="210" width="90" height="40" as="geometry" />
        </mxCell>
        <mxCell id="PZr9lelDYHl3dYxXVVvF-30" value="" style="endArrow=classic;html=1;exitX=1.025;exitY=0.529;exitDx=0;exitDy=0;exitPerimeter=0;entryX=0;entryY=0.5;entryDx=0;entryDy=0;" parent="1" source="PZr9lelDYHl3dYxXVVvF-21" target="PZr9lelDYHl3dYxXVVvF-27" edge="1">
          <mxGeometry width="50" height="50" relative="1" as="geometry">
            <mxPoint x="1205" y="210" as="sourcePoint" />
            <mxPoint x="1255" y="160" as="targetPoint" />
          </mxGeometry>
        </mxCell>
        <mxCell id="PZr9lelDYHl3dYxXVVvF-31" value="consumer" style="text;html=1;align=center;verticalAlign=middle;resizable=0;points=[];autosize=1;" parent="1" vertex="1">
          <mxGeometry x="1230" y="150" width="70" height="20" as="geometry" />
        </mxCell>
        <mxCell id="OIphQyb20RP0rthybxOa-6" value="" style="edgeStyle=orthogonalEdgeStyle;rounded=0;orthogonalLoop=1;jettySize=auto;html=1;" parent="1" source="PZr9lelDYHl3dYxXVVvF-32" target="OIphQyb20RP0rthybxOa-5" edge="1">
          <mxGeometry relative="1" as="geometry" />
        </mxCell>
        <mxCell id="OIphQyb20RP0rthybxOa-11" value="" style="edgeStyle=orthogonalEdgeStyle;rounded=0;orthogonalLoop=1;jettySize=auto;html=1;" parent="1" source="PZr9lelDYHl3dYxXVVvF-32" target="OIphQyb20RP0rthybxOa-10" edge="1">
          <mxGeometry relative="1" as="geometry" />
        </mxCell>
        <mxCell id="PZr9lelDYHl3dYxXVVvF-32" value="batch_operate_sub" style="shape=process;whiteSpace=wrap;html=1;backgroundOutline=1;" parent="1" vertex="1">
          <mxGeometry x="1095" y="340" width="160" height="60" as="geometry" />
        </mxCell>
        <mxCell id="PZr9lelDYHl3dYxXVVvF-34" value="批量写入子表，记录失败原因" style="text;html=1;align=center;verticalAlign=middle;resizable=0;points=[];autosize=1;" parent="1" vertex="1">
          <mxGeometry x="758" y="309" width="170" height="20" as="geometry" />
        </mxCell>
        <mxCell id="PZr9lelDYHl3dYxXVVvF-35" value="" style="endArrow=classic;html=1;exitX=0.25;exitY=1;exitDx=0;exitDy=0;entryX=0.75;entryY=0;entryDx=0;entryDy=0;" parent="1" source="PZr9lelDYHl3dYxXVVvF-26" target="PZr9lelDYHl3dYxXVVvF-32" edge="1">
          <mxGeometry width="50" height="50" relative="1" as="geometry">
            <mxPoint x="1335" y="320" as="sourcePoint" />
            <mxPoint x="1385" y="270" as="targetPoint" />
          </mxGeometry>
        </mxCell>
        <mxCell id="PZr9lelDYHl3dYxXVVvF-36" value="更新状态" style="text;html=1;align=center;verticalAlign=middle;resizable=0;points=[];autosize=1;" parent="1" vertex="1">
          <mxGeometry x="1318" y="277" width="60" height="20" as="geometry" />
        </mxCell>
        <mxCell id="PZr9lelDYHl3dYxXVVvF-39" value="更新状态" style="text;html=1;align=center;verticalAlign=middle;resizable=0;points=[];autosize=1;" parent="1" vertex="1">
          <mxGeometry x="1465" y="510" width="60" height="20" as="geometry" />
        </mxCell>
        <mxCell id="PZr9lelDYHl3dYxXVVvF-41" value="定时任务：任务进度监控和邮件通知报警" style="rounded=1;whiteSpace=wrap;html=1;" parent="1" vertex="1">
          <mxGeometry x="660" y="450" width="280" height="40" as="geometry" />
        </mxCell>
        <mxCell id="PZr9lelDYHl3dYxXVVvF-42" value="" style="endArrow=none;dashed=1;html=1;dashPattern=1 3;strokeWidth=2;exitX=0.25;exitY=0;exitDx=0;exitDy=0;entryX=0.75;entryY=1;entryDx=0;entryDy=0;" parent="1" source="PZr9lelDYHl3dYxXVVvF-41" target="PZr9lelDYHl3dYxXVVvF-8" edge="1">
          <mxGeometry width="50" height="50" relative="1" as="geometry">
            <mxPoint x="620" y="450" as="sourcePoint" />
            <mxPoint x="670" y="400" as="targetPoint" />
          </mxGeometry>
        </mxCell>
        <mxCell id="PZr9lelDYHl3dYxXVVvF-43" value="" style="endArrow=none;dashed=1;html=1;dashPattern=1 3;strokeWidth=2;exitX=0.621;exitY=-0.05;exitDx=0;exitDy=0;exitPerimeter=0;entryX=0.5;entryY=1;entryDx=0;entryDy=0;" parent="1" source="PZr9lelDYHl3dYxXVVvF-41" target="PZr9lelDYHl3dYxXVVvF-32" edge="1">
          <mxGeometry width="50" height="50" relative="1" as="geometry">
            <mxPoint x="810" y="470" as="sourcePoint" />
            <mxPoint x="860" y="420" as="targetPoint" />
          </mxGeometry>
        </mxCell>
        <mxCell id="OIphQyb20RP0rthybxOa-1" value="status=0" style="text;html=1;align=center;verticalAlign=middle;resizable=0;points=[];autosize=1;" parent="1" vertex="1">
          <mxGeometry x="520" y="290" width="60" height="20" as="geometry" />
        </mxCell>
        <mxCell id="gbeeoLftiZqk-tR9NvzK-5" style="edgeStyle=orthogonalEdgeStyle;rounded=0;orthogonalLoop=1;jettySize=auto;html=1;entryX=0.456;entryY=0.983;entryDx=0;entryDy=0;entryPerimeter=0;" edge="1" parent="1" source="OIphQyb20RP0rthybxOa-5" target="PZr9lelDYHl3dYxXVVvF-8">
          <mxGeometry relative="1" as="geometry">
            <Array as="points">
              <mxPoint x="1540" y="530" />
              <mxPoint x="553" y="530" />
            </Array>
          </mxGeometry>
        </mxCell>
        <mxCell id="OIphQyb20RP0rthybxOa-5" value="xjob定时任务" style="shape=internalStorage;whiteSpace=wrap;html=1;backgroundOutline=1;" parent="1" vertex="1">
          <mxGeometry x="1345" y="345" width="130" height="50" as="geometry" />
        </mxCell>
        <mxCell id="OIphQyb20RP0rthybxOa-9" value="count" style="text;html=1;align=center;verticalAlign=middle;resizable=0;points=[];autosize=1;" parent="1" vertex="1">
          <mxGeometry x="1275" y="350" width="40" height="20" as="geometry" />
        </mxCell>
        <mxCell id="gbeeoLftiZqk-tR9NvzK-1" style="edgeStyle=orthogonalEdgeStyle;rounded=0;orthogonalLoop=1;jettySize=auto;html=1;" edge="1" parent="1" source="OIphQyb20RP0rthybxOa-10">
          <mxGeometry relative="1" as="geometry">
            <mxPoint x="1505" y="200" as="targetPoint" />
          </mxGeometry>
        </mxCell>
        <mxCell id="OIphQyb20RP0rthybxOa-10" value="batch_operate_configuration" style="shape=process;whiteSpace=wrap;html=1;backgroundOutline=1;" parent="1" vertex="1">
          <mxGeometry x="1070" y="450" width="210" height="50" as="geometry" />
        </mxCell>
        <mxCell id="OIphQyb20RP0rthybxOa-12" value="type=&amp;gt;topic" style="text;html=1;align=center;verticalAlign=middle;resizable=0;points=[];autosize=1;" parent="1" vertex="1">
          <mxGeometry x="1170" y="410" width="80" height="20" as="geometry" />
        </mxCell>
        <mxCell id="OIphQyb20RP0rthybxOa-13" value="订单、学币等系统" style="rounded=0;whiteSpace=wrap;html=1;" parent="1" vertex="1">
          <mxGeometry x="1545" y="160" width="120" height="60" as="geometry" />
        </mxCell>
        <mxCell id="OIphQyb20RP0rthybxOa-14" value="" style="shape=flexArrow;endArrow=classic;html=1;entryX=0;entryY=0.5;entryDx=0;entryDy=0;" parent="1" target="OIphQyb20RP0rthybxOa-13" edge="1">
          <mxGeometry width="50" height="50" relative="1" as="geometry">
            <mxPoint x="1466" y="190" as="sourcePoint" />
            <mxPoint x="1535" y="170" as="targetPoint" />
          </mxGeometry>
        </mxCell>
        <mxCell id="OIphQyb20RP0rthybxOa-15" value="rpc" style="text;html=1;align=center;verticalAlign=middle;resizable=0;points=[];autosize=1;" parent="1" vertex="1">
          <mxGeometry x="1484" y="167" width="30" height="20" as="geometry" />
        </mxCell>
        <mxCell id="gbeeoLftiZqk-tR9NvzK-2" value="幂等，重试，qps，定时" style="text;html=1;align=center;verticalAlign=middle;resizable=0;points=[];autosize=1;" vertex="1" parent="1">
          <mxGeometry x="1275" y="453" width="140" height="20" as="geometry" />
        </mxCell>
        <mxCell id="gbeeoLftiZqk-tR9NvzK-6" value="" style="endArrow=classic;html=1;exitX=1;exitY=0.75;exitDx=0;exitDy=0;entryX=0;entryY=0.5;entryDx=0;entryDy=0;" edge="1" parent="1" source="PZr9lelDYHl3dYxXVVvF-13" target="PZr9lelDYHl3dYxXVVvF-32">
          <mxGeometry width="50" height="50" relative="1" as="geometry">
            <mxPoint x="780" y="320" as="sourcePoint" />
            <mxPoint x="830" y="270" as="targetPoint" />
          </mxGeometry>
        </mxCell>
        <mxCell id="gbeeoLftiZqk-tR9NvzK-8" value="" style="shape=internalStorage;whiteSpace=wrap;html=1;backgroundOutline=1;" vertex="1" parent="1">
          <mxGeometry x="860" y="100" width="140" height="160" as="geometry" />
        </mxCell>
        <mxCell id="gbeeoLftiZqk-tR9NvzK-9" value="&lt;span&gt;producer&lt;/span&gt;" style="rounded=0;whiteSpace=wrap;html=1;" vertex="1" parent="1">
          <mxGeometry x="885" y="130" width="100" height="40" as="geometry" />
        </mxCell>
        <mxCell id="gbeeoLftiZqk-tR9NvzK-10" value="xjob监听" style="rounded=0;whiteSpace=wrap;html=1;" vertex="1" parent="1">
          <mxGeometry x="890" y="210" width="90" height="40" as="geometry" />
        </mxCell>
        <mxCell id="gbeeoLftiZqk-tR9NvzK-11" value="" style="endArrow=classic;html=1;exitX=0.25;exitY=0;exitDx=0;exitDy=0;entryX=1;entryY=1;entryDx=0;entryDy=0;" edge="1" parent="1" source="PZr9lelDYHl3dYxXVVvF-32" target="gbeeoLftiZqk-tR9NvzK-10">
          <mxGeometry width="50" height="50" relative="1" as="geometry">
            <mxPoint x="950" y="350" as="sourcePoint" />
            <mxPoint x="1000" y="300" as="targetPoint" />
          </mxGeometry>
        </mxCell>
        <mxCell id="gbeeoLftiZqk-tR9NvzK-12" value="" style="endArrow=classic;html=1;exitX=1;exitY=0.75;exitDx=0;exitDy=0;" edge="1" parent="1" source="gbeeoLftiZqk-tR9NvzK-9">
          <mxGeometry width="50" height="50" relative="1" as="geometry">
            <mxPoint x="985" y="150" as="sourcePoint" />
            <mxPoint x="1110" y="190" as="targetPoint" />
          </mxGeometry>
        </mxCell>
        <mxCell id="gbeeoLftiZqk-tR9NvzK-13" value="status=0" style="text;html=1;align=center;verticalAlign=middle;resizable=0;points=[];autosize=1;" vertex="1" parent="1">
          <mxGeometry x="1035" y="270" width="60" height="20" as="geometry" />
        </mxCell>
        <mxCell id="gbeeoLftiZqk-tR9NvzK-14" value="" style="endArrow=classic;html=1;exitX=0.5;exitY=0;exitDx=0;exitDy=0;" edge="1" parent="1" source="gbeeoLftiZqk-tR9NvzK-10" target="gbeeoLftiZqk-tR9NvzK-9">
          <mxGeometry width="50" height="50" relative="1" as="geometry">
            <mxPoint x="770" y="280" as="sourcePoint" />
            <mxPoint x="820" y="230" as="targetPoint" />
          </mxGeometry>
        </mxCell>
        <mxCell id="gbeeoLftiZqk-tR9NvzK-15" value="" style="endArrow=classic;html=1;exitX=0;exitY=0.5;exitDx=0;exitDy=0;entryX=0.571;entryY=0.563;entryDx=0;entryDy=0;entryPerimeter=0;edgeStyle=orthogonalEdgeStyle;" edge="1" parent="1" source="OIphQyb20RP0rthybxOa-10" target="gbeeoLftiZqk-tR9NvzK-8">
          <mxGeometry width="50" height="50" relative="1" as="geometry">
            <mxPoint x="1000" y="480" as="sourcePoint" />
            <mxPoint x="1050" y="430" as="targetPoint" />
            <Array as="points">
              <mxPoint x="970" y="475" />
              <mxPoint x="970" y="190" />
            </Array>
          </mxGeometry>
        </mxCell>
        <mxCell id="gbeeoLftiZqk-tR9NvzK-16" value="topic" style="text;html=1;strokeColor=none;fillColor=none;align=center;verticalAlign=middle;whiteSpace=wrap;rounded=0;" vertex="1" parent="1">
          <mxGeometry x="895" y="180" width="40" height="20" as="geometry" />
        </mxCell>
        <mxCell id="gbeeoLftiZqk-tR9NvzK-20" value="" style="edgeStyle=orthogonalEdgeStyle;rounded=0;orthogonalLoop=1;jettySize=auto;html=1;entryX=0.25;entryY=1;entryDx=0;entryDy=0;" edge="1" parent="1" source="gbeeoLftiZqk-tR9NvzK-18" target="PZr9lelDYHl3dYxXVVvF-8">
          <mxGeometry relative="1" as="geometry">
            <mxPoint x="440" y="485" as="targetPoint" />
          </mxGeometry>
        </mxCell>
        <mxCell id="gbeeoLftiZqk-tR9NvzK-18" value="xjob定时任务" style="shape=internalStorage;whiteSpace=wrap;html=1;backgroundOutline=1;" vertex="1" parent="1">
          <mxGeometry x="225" y="460" width="130" height="50" as="geometry" />
        </mxCell>
        <mxCell id="gbeeoLftiZqk-tR9NvzK-21" value="监控status=1" style="text;html=1;align=center;verticalAlign=middle;resizable=0;points=[];autosize=1;" vertex="1" parent="1">
          <mxGeometry x="384" y="464" width="90" height="20" as="geometry" />
        </mxCell>
        <mxCell id="gbeeoLftiZqk-tR9NvzK-22" value="间隔时间&amp;gt;1h,重新解析&lt;br&gt;从中断位置入库" style="text;html=1;align=center;verticalAlign=middle;resizable=0;points=[];autosize=1;" vertex="1" parent="1">
          <mxGeometry x="362" y="485" width="140" height="30" as="geometry" />
        </mxCell>
        <mxCell id="gbeeoLftiZqk-tR9NvzK-23" value="" style="endArrow=classic;html=1;exitX=1;exitY=1;exitDx=0;exitDy=0;entryX=0.5;entryY=0;entryDx=0;entryDy=0;" edge="1" parent="1" source="gbeeoLftiZqk-tR9NvzK-9" target="PZr9lelDYHl3dYxXVVvF-32">
          <mxGeometry width="50" height="50" relative="1" as="geometry">
            <mxPoint x="980" y="180" as="sourcePoint" />
            <mxPoint x="860" y="730" as="targetPoint" />
          </mxGeometry>
        </mxCell>
        <mxCell id="gbeeoLftiZqk-tR9NvzK-24" value="更新状态status=1" style="text;html=1;align=center;verticalAlign=middle;resizable=0;points=[];autosize=1;" vertex="1" parent="1">
          <mxGeometry x="1104" y="270" width="110" height="20" as="geometry" />
        </mxCell>
        <mxCell id="gbeeoLftiZqk-tR9NvzK-25" value="幂等性" style="text;html=1;align=center;verticalAlign=middle;resizable=0;points=[];autosize=1;" vertex="1" parent="1">
          <mxGeometry x="885" y="283" width="50" height="20" as="geometry" />
        </mxCell>
      </root>
    </mxGraphModel>
  </diagram>
</mxfile>
